<svg width="450" height="459" viewBox="0 0 450 459" fill="none" xmlns="http://www.w3.org/2000/svg">
<path d="M315.367 185.809C342.411 185.809 364.334 163.908 364.334 136.89C364.334 109.873 342.411 87.971 315.367 87.971C288.324 87.971 266.401 109.873 266.401 136.89C266.401 163.908 288.324 185.809 315.367 185.809Z" fill="#DA3728"/>
<path d="M449.685 173.364C449.793 173.344 449.874 173.269 450 173.288C449.945 173.076 449.873 172.869 449.785 172.669C449.629 172.881 449.47 173.098 449.331 173.287L449.685 173.364Z" fill="white"/>
<path d="M121.259 252.673C121.545 263.346 123.335 273.925 126.575 284.099C126.649 284.336 126.726 284.568 126.804 284.804H146.642C146.621 284.593 146.599 284.357 146.578 284.099C145.255 268.908 137.629 176.446 146.748 160.634C145.95 161.917 119.721 204.402 121.259 252.673Z" fill="#E6E6E6"/>
<path d="M122.748 284.099C122.913 284.336 123.086 284.572 123.263 284.804H138.144C138.032 284.603 137.901 284.367 137.749 284.099C135.291 279.666 128.014 266.413 121.259 252.673C114 237.908 107.34 222.582 107.901 217.035C107.728 218.286 102.705 256.422 122.748 284.099Z" fill="#E6E6E6"/>
<path d="M277.391 286.641C277.141 295.946 275.581 305.169 272.756 314.039C272.692 314.245 272.624 314.448 272.557 314.653H255.262C255.28 314.469 255.299 314.263 255.317 314.039C256.47 300.795 263.119 220.185 255.169 206.4C255.864 207.519 278.731 244.557 277.391 286.641Z" fill="#E6E6E6"/>
<path d="M276.093 314.039C275.948 314.245 275.798 314.451 275.644 314.653H262.67C262.768 314.478 262.882 314.272 263.014 314.039C265.158 310.174 271.502 298.619 277.391 286.641C283.719 273.768 289.525 260.407 289.036 255.571C289.187 256.662 293.566 289.91 276.093 314.039Z" fill="#E6E6E6"/>
<path d="M79.6451 12.707L87.7104 6.26251C81.4448 5.57191 78.8704 8.98571 77.8168 11.6878C72.9219 9.65721 67.5932 12.3184 67.5932 12.3184L83.7304 18.1712C82.9163 15.9988 81.4992 14.1033 79.6451 12.707Z" fill="#272356"/>
<path d="M441.232 234.384C441.232 239.724 441.045 245.02 440.673 250.273C437.8 291.712 423.418 331.531 399.141 365.254C395.969 369.677 392.638 373.977 389.148 378.152C380.106 388.986 370.066 398.949 359.161 407.91L311.36 379.888L282.78 313.248C282.78 313.248 325.423 226.991 441.156 228.555C441.204 230.491 441.229 232.434 441.232 234.384Z" fill="#3F3D56"/>
<path d="M440.673 250.273C438.474 281.239 429.874 311.414 415.416 338.894C400.958 366.373 380.956 390.56 356.671 409.929L312.264 383.898L286.918 324.796C286.918 324.796 327.988 241.722 440.673 250.273Z" fill="#4C72A1"/>
<path d="M399.141 365.254C395.969 369.677 392.638 373.977 389.148 378.152C365.764 406.22 335.885 428.171 302.098 442.106C295.257 444.924 288.254 447.409 281.091 449.561C229.366 463.303 174.568 459.827 124.998 439.66C75.9745 417.8 36.3583 379.194 13.2651 330.776C10.1616 324.258 7.3708 317.575 4.89258 310.726C48.1141 279.094 133.281 233.799 226.104 277.812C251.78 289.987 274.707 301.085 294.884 311.105C346.085 336.46 380.162 354.74 399.141 365.254Z" fill="#3F3D56"/>
<path d="M389.148 378.152C364.976 407.094 333.907 429.497 298.799 443.302C263.691 457.107 225.672 461.869 188.239 457.151C150.806 452.433 115.162 438.386 84.5865 416.303C54.0106 394.219 29.4847 364.808 13.2651 330.776C49.3623 302.258 132.619 251.01 223.986 294.328C247.483 305.469 268.461 315.625 286.918 324.796C340.726 351.439 373.872 369.546 389.148 378.152Z" fill="#4C72A1"/>
<path d="M325.436 430.868C317.877 435.054 310.085 438.806 302.098 442.106C274.917 453.296 245.798 459.036 216.4 459C181.613 458.986 147.303 450.916 116.164 435.422C85.0247 419.929 57.905 397.434 36.9346 369.705C90.6321 364.048 239.062 356.421 325.436 430.868Z" fill="#3F3D56"/>
<path d="M302.098 442.106C259.95 459.419 213.535 463.544 168.99 453.933C124.446 444.322 83.8705 421.428 52.6314 388.281C72.1628 385.414 225.504 365.729 302.098 442.106Z" fill="#4C72A1"/>
<path d="M403.521 109.826V109.833C242.98 -8.7518 59.0454 74.714 57.6246 75.355V75.348C78.4727 54.5227 103.228 38.0105 130.473 26.7573C157.719 15.5042 186.918 9.73111 216.4 9.76871C294.45 9.76861 363.21 49.5036 403.521 109.826Z" fill="#E6E6E6"/>
<path d="M70.501 238.739C97.6593 233.847 111.576 185.002 101.585 129.642C91.5941 74.281 61.4787 33.3681 34.3204 38.26C7.1621 43.1518 -6.75477 91.996 3.23621 147.357C13.2272 202.717 43.3427 243.631 70.501 238.739Z" fill="#3F3D56"/>
<path d="M77.4804 303.393C75.8704 181.793 35.1458 67.6797 34.7348 66.5422L31.0208 67.8806C31.4298 69.0126 71.9309 182.528 73.5326 303.446L77.4804 303.393Z" fill="#4C72A1"/>
<path d="M5.22714 124.743L4.01202 128.497L52.7673 144.249L53.9824 140.495L5.22714 124.743Z" fill="#4C72A1"/>
<path d="M96.9401 120.515L56.7689 152.298L59.2206 155.391L99.3917 123.607L96.9401 120.515Z" fill="#4C72A1"/>
<path d="M201.088 221.208C230.95 221.208 255.158 171.862 255.158 110.991C255.158 50.1195 230.95 0.773605 201.088 0.773605C171.227 0.773605 147.019 50.1195 147.019 110.991C147.019 171.862 171.227 221.208 201.088 221.208Z" fill="#3F3D56"/>
<path d="M196.095 291.398C217.751 161.596 196.313 32.2617 196.094 30.9715L191.882 31.6843C192.1 32.9683 213.414 161.623 191.881 290.698L196.095 291.398Z" fill="#4C72A1"/>
<path d="M153.485 87.291L151.47 91.055L200.363 117.182L202.379 113.418L153.485 87.291Z" fill="#4C72A1"/>
<path d="M251.965 100.379L203.078 126.52L205.094 130.284L253.982 104.142L251.965 100.379Z" fill="#4C72A1"/>
<path d="M435.949 185.754C416.11 174.627 395.384 165.16 373.982 157.45C255.642 114.67 138.295 131.158 92.3632 192.383C128.109 117.377 255.656 93.793 384.368 140.321C399.349 145.732 414.01 151.989 428.28 159.062C431.389 167.792 433.95 176.706 435.949 185.754Z" fill="#E6E6E6"/>
<path d="M276.123 65.0565L284.188 58.612C277.922 57.9214 275.348 61.3352 274.294 64.0373C269.399 62.0067 264.071 64.6679 264.071 64.6679L280.208 70.5206C279.394 68.3483 277.977 66.4528 276.123 65.0565Z" fill="#3F3D56"/>
</svg>
