<svg width="450" height="486" viewBox="0 0 450 486" fill="none" xmlns="http://www.w3.org/2000/svg">
<g clip-path="url(#clip0)">
<path d="M315.367 212.809C342.411 212.809 364.334 190.908 364.334 163.89C364.334 136.873 342.411 114.971 315.367 114.971C288.324 114.971 266.401 136.873 266.401 163.89C266.401 190.908 288.324 212.809 315.367 212.809Z" fill="#DA3728"/>
<path d="M449.685 200.364C449.793 200.344 449.874 200.269 450 200.288C449.945 200.076 449.873 199.869 449.785 199.669C449.629 199.881 449.47 200.098 449.331 200.287L449.685 200.364Z" fill="white"/>
<path d="M121.259 279.673C121.545 290.346 123.335 300.925 126.575 311.099C126.649 311.336 126.726 311.568 126.804 311.804H146.642C146.621 311.593 146.599 311.357 146.578 311.099C145.255 295.908 137.629 203.446 146.748 187.634C145.95 188.917 119.721 231.402 121.259 279.673Z" fill="#E6E6E6"/>
<path d="M122.748 311.099C122.913 311.336 123.086 311.572 123.263 311.804H138.144C138.032 311.603 137.901 311.367 137.749 311.099C135.291 306.666 128.014 293.413 121.259 279.673C114 264.908 107.34 249.582 107.901 244.035C107.728 245.286 102.705 283.422 122.748 311.099Z" fill="#E6E6E6"/>
<path d="M277.391 313.641C277.141 322.946 275.581 332.169 272.756 341.039C272.692 341.245 272.624 341.448 272.557 341.653H255.262C255.28 341.469 255.299 341.263 255.317 341.039C256.47 327.795 263.119 247.185 255.169 233.4C255.864 234.519 278.731 271.557 277.391 313.641Z" fill="#E6E6E6"/>
<path d="M276.093 341.039C275.948 341.245 275.798 341.451 275.644 341.653H262.67C262.768 341.478 262.882 341.272 263.014 341.039C265.158 337.174 271.502 325.619 277.391 313.641C283.719 300.768 289.525 287.407 289.036 282.571C289.187 283.662 293.566 316.91 276.093 341.039Z" fill="#E6E6E6"/>
<path d="M79.6451 39.707L87.7104 33.2625C81.4448 32.5719 78.8704 35.9857 77.8168 38.6878C72.9219 36.6572 67.5932 39.3184 67.5932 39.3184L83.7304 45.1712C82.9163 42.9988 81.4992 41.1033 79.6451 39.707V39.707Z" fill="#3F3D56"/>
<path d="M322.565 6.53475L330.631 0.0902488C324.365 -0.600351 321.791 2.81348 320.737 5.51555C315.842 3.48495 310.514 6.14615 310.514 6.14615L326.651 11.9989C325.837 9.82654 324.419 7.93108 322.565 6.53475V6.53475Z" fill="#3F3D56"/>
<path d="M441.232 261.384C441.232 266.724 441.045 272.02 440.673 277.273C437.8 318.712 423.418 358.531 399.141 392.254C395.969 396.677 392.638 400.977 389.148 405.152C380.106 415.986 370.066 425.949 359.161 434.91L311.36 406.888L282.78 340.248C282.78 340.248 325.423 253.991 441.156 255.555C441.204 257.491 441.229 259.434 441.232 261.384Z" fill="#3F3D56"/>
<path d="M440.673 277.273C438.474 308.239 429.874 338.414 415.416 365.894C400.958 393.373 380.956 417.56 356.671 436.929L312.264 410.898L286.918 351.796C286.918 351.796 327.988 268.722 440.673 277.273Z" fill="#4C72A1"/>
<path d="M399.141 392.254C395.969 396.677 392.638 400.977 389.148 405.152C365.764 433.22 335.885 455.171 302.098 469.106C295.257 471.924 288.254 474.409 281.091 476.561C229.366 490.303 174.568 486.827 124.998 466.66C75.9745 444.8 36.3583 406.194 13.2651 357.776C10.1616 351.258 7.3708 344.575 4.89258 337.726C48.1141 306.094 133.281 260.799 226.104 304.812C251.78 316.987 274.707 328.085 294.884 338.105C346.085 363.46 380.162 381.74 399.141 392.254Z" fill="#3F3D56"/>
<path d="M389.148 405.152C364.976 434.094 333.907 456.497 298.799 470.302C263.691 484.107 225.672 488.869 188.239 484.151C150.806 479.433 115.162 465.386 84.5865 443.303C54.0106 421.219 29.4847 391.808 13.2651 357.776C49.3623 329.258 132.619 278.01 223.986 321.328C247.483 332.469 268.461 342.625 286.918 351.796C340.726 378.439 373.872 396.546 389.148 405.152Z" fill="#4C72A1"/>
<path d="M325.436 457.868C317.877 462.054 310.085 465.806 302.098 469.106C274.917 480.296 245.798 486.036 216.4 486C181.613 485.986 147.303 477.916 116.164 462.422C85.0247 446.929 57.905 424.434 36.9346 396.705C90.6321 391.048 239.062 383.421 325.436 457.868Z" fill="#3F3D56"/>
<path d="M302.098 469.106C259.95 486.419 213.535 490.544 168.99 480.933C124.446 471.322 83.8705 448.428 52.6314 415.281C72.1628 412.414 225.504 392.729 302.098 469.106Z" fill="#4C72A1"/>
<path d="M403.521 136.826V136.833C242.98 18.2482 59.0454 101.714 57.6246 102.355V102.348C78.4727 81.5227 103.228 65.0105 130.473 53.7573C157.719 42.5042 186.918 36.7311 216.4 36.7687C294.45 36.7686 363.21 76.5036 403.521 136.826Z" fill="#E6E6E6"/>
<path d="M70.501 265.739C97.6593 260.847 111.576 212.002 101.585 156.642C91.5941 101.281 61.4787 60.3681 34.3204 65.26C7.1621 70.1518 -6.75477 118.996 3.23621 174.357C13.2272 229.717 43.3427 270.631 70.501 265.739Z" fill="#3F3D56"/>
<path d="M77.4804 330.393C75.8704 208.793 35.1458 94.6797 34.7348 93.5422L31.0208 94.8806C31.4298 96.0126 71.9309 209.528 73.5326 330.446L77.4804 330.393Z" fill="#4C72A1"/>
<path d="M5.22714 151.743L4.01202 155.497L52.7673 171.249L53.9824 167.495L5.22714 151.743Z" fill="#4C72A1"/>
<path d="M96.9401 147.515L56.7689 179.298L59.2206 182.391L99.3917 150.607L96.9401 147.515Z" fill="#4C72A1"/>
<path d="M201.088 248.208C230.95 248.208 255.158 198.862 255.158 137.991C255.158 77.1195 230.95 27.7736 201.088 27.7736C171.227 27.7736 147.019 77.1195 147.019 137.991C147.019 198.862 171.227 248.208 201.088 248.208Z" fill="#3F3D56"/>
<path d="M196.095 318.398C217.751 188.596 196.313 59.2617 196.094 57.9715L191.882 58.6843C192.1 59.9683 213.414 188.623 191.881 317.698L196.095 318.398Z" fill="#4C72A1"/>
<path d="M153.485 114.291L151.47 118.055L200.363 144.182L202.379 140.418L153.485 114.291Z" fill="#4C72A1"/>
<path d="M251.965 127.379L203.078 153.52L205.094 157.284L253.982 131.142L251.965 127.379Z" fill="#4C72A1"/>
<path d="M435.949 212.754C416.11 201.627 395.384 192.16 373.982 184.45C255.642 141.67 138.295 158.158 92.3632 219.383C128.109 144.377 255.656 120.793 384.368 167.321C399.349 172.732 414.01 178.989 428.28 186.062C431.389 194.792 433.95 203.706 435.949 212.754V212.754Z" fill="#E6E6E6"/>
<path d="M276.123 92.0565L284.188 85.612C277.922 84.9214 275.348 88.3352 274.294 91.0373C269.399 89.0067 264.071 91.6679 264.071 91.6679L280.208 97.5206C279.394 95.3483 277.977 93.4528 276.123 92.0565Z" fill="#3F3D56"/>
</g>
<defs>
<clipPath id="clip0">
<rect width="450" height="486" fill="white"/>
</clipPath>
</defs>
</svg>
